<svg width="593.906" height="183" xmlns="http://www.w3.org/2000/svg">

 <g>
  <title>Layer 1</title>
  <path id="svg_1" fill-rule="evenodd" fill="#5143d9" d="m183,91.5a91.5,91.5 0 1 1 -91.5,-91.5a91.5,91.5 0 0 1 91.5,91.5z" class="cls-1"/>
  <path id="svg_2" fill="#fff" fill-rule="evenodd" d="m150.286,91.6l2.191,-2.195a1.655,1.655 0 1 0 -2.339,-2.343l-0.181,0.181l-0.7,-9.327l2.2,-2.206a1.655,1.655 0 1 0 -2.339,-2.343l-0.192,0.192l-0.833,-11.044c6.042,-5.71 10.829,-10.255 11.912,-11.34c4.282,-4.29 2.932,-10.791 2.273,-11.45s-7.148,-2.013 -11.43,2.277c-1.083,1.085 -5.62,5.88 -11.32,11.933l-11.028,-0.835l0.192,-0.192a1.655,1.655 0 0 0 -2.339,-2.343l-2.2,2.206l-9.31,-0.7l0.181,-0.181a1.655,1.655 0 0 0 -2.339,-2.343l-2.191,2.195l-14.394,-1.093l-3.228,3.234l26.286,7.59l7.539,6.113c-6.748,8.076 -17.355,20.286 -17.355,20.286l-14.263,-1.683l-2.179,2.177l10.282,6.334a2.384,2.384 0 0 0 -0.725,2.31c-1.976,1.98 -1.12,3.762 -1.12,3.762s1.779,0.858 3.756,-1.122a2.372,2.372 0 0 0 2.3,-0.726l6.325,10.3l2.174,-2.178l-1.68,-14.289s12.188,-10.625 20.25,-17.385l6.1,7.552l7.576,26.333l3.229,-3.234l-1.081,-14.423zm-79.233,33.379c-4.932,3.458 -9.955,6.758 -15.072,9.839a170.777,170.777 0 0 1 -15.63,8.419c-2.647,1.238 -5.316,2.37 -7.983,3.348a56.035,56.035 0 0 1 -7.9,2.309a26.285,26.285 0 0 1 -3.684,0.5a12.123,12.123 0 0 1 -3.016,-0.149a4.517,4.517 0 0 1 -0.944,-0.307a0.833,0.833 0 0 1 -0.355,-0.3a0.1,0.1 0 0 1 0.086,-0.129a0.131,0.131 0 0 0 0.114,-0.125c0.025,-0.158 -0.024,-0.7 0.057,-1.49c0.031,-0.31 0.082,-0.658 0.145,-1.022a78.919,78.919 0 0 1 -10.621,-22.211c-0.943,2.294 -1.821,4.648 -2.611,7.085a56.872,56.872 0 0 0 -2.406,10.529a31.559,31.559 0 0 0 -0.151,6.2a21.625,21.625 0 0 0 0.579,3.533a17.131,17.131 0 0 0 1.42,3.8a14.773,14.773 0 0 0 6.237,6.345a16.253,16.253 0 0 0 3.84,1.407a19.692,19.692 0 0 0 3.531,0.437a26.18,26.18 0 0 0 6.038,-0.581a39.668,39.668 0 0 0 5.178,-1.467a67.877,67.877 0 0 0 9.095,-4.072c2.853,-1.521 5.578,-3.157 8.222,-4.871a179.48,179.48 0 0 0 15.068,-11.024c4.8,-3.881 9.427,-7.931 13.913,-12.1a349.491,349.491 0 0 0 25.375,-26.344a346.793,346.793 0 0 1 -28.525,22.441z" class="cls-2"/>
  <text transform="matrix(4.13785 0 0 4.13785 -737.247 -30.6473)" stroke="null" font-weight="bold" xml:space="preserve" text-anchor="start" font-family="'Syne'" font-size="24" stroke-width="0" id="svg_5" y="38.04179" x="226.01114" fill="#000000">GoTravel</text>
 </g>
</svg>